<svg width="16" height="16" viewBox="0 0 16 16" fill="none" xmlns="http://www.w3.org/2000/svg">
<mask id="mask0_1_719" style="mask-type:alpha" maskUnits="userSpaceOnUse" x="0" y="0" width="16" height="16">
<rect width="16" height="16" fill="#D9D9D9"/>
</mask>
<g mask="url(#mask0_1_719)">
<path d="M3.39984 10.7C3.15539 10.2778 2.97206 9.84447 2.84984 9.40002C2.72762 8.95558 2.6665 8.50002 2.6665 8.03335C2.6665 6.54447 3.18317 5.2778 4.2165 4.23335C5.24984 3.18891 6.51095 2.66669 7.99984 2.66669H8.1165L7.04984 1.60002L7.98317 0.666687L10.6498 3.33335L7.98317 6.00002L7.04984 5.06669L8.1165 4.00002H7.99984C6.88873 4.00002 5.94428 4.39158 5.1665 5.17469C4.38873 5.95824 3.99984 6.91113 3.99984 8.03335C3.99984 8.32224 4.03317 8.60558 4.09984 8.88335C4.1665 9.16113 4.2665 9.43335 4.39984 9.70002L3.39984 10.7ZM8.0165 15.3334L5.34984 12.6667L8.0165 10L8.94984 10.9334L7.88317 12H7.99984C9.11095 12 10.0554 11.6085 10.8332 10.8254C11.6109 10.0418 11.9998 9.08891 11.9998 7.96669C11.9998 7.6778 11.9665 7.39446 11.8998 7.11669C11.8332 6.83891 11.7332 6.56669 11.5998 6.30002L12.5998 5.30002C12.8443 5.72224 13.0276 6.15558 13.1498 6.60002C13.2721 7.04446 13.3332 7.50002 13.3332 7.96669C13.3332 9.45558 12.8165 10.7222 11.7832 11.7667C10.7498 12.8111 9.48873 13.3334 7.99984 13.3334H7.88317L8.94984 14.4L8.0165 15.3334Z" fill="#416A8D"/>
</g>
</svg>
