<svg width="120" height="29" viewBox="0 0 120 29" fill="none" xmlns="http://www.w3.org/2000/svg">
<mask id="mask0_53_44" style="mask-type:alpha" maskUnits="userSpaceOnUse" x="0" y="2" width="24" height="25">
<rect y="2.5" width="24" height="24" fill="#D9D9D9"/>
</mask>
<g mask="url(#mask0_53_44)">
<path d="M6.5 22.5C4.98333 22.5 3.68767 21.975 2.613 20.925C1.53767 19.875 1 18.5917 1 17.075C1 15.775 1.39167 14.6167 2.175 13.6C2.95833 12.5833 3.98333 11.9333 5.25 11.65C5.63333 10.3 6.346 9.16668 7.388 8.25001C8.42933 7.33335 9.63333 6.77501 11 6.57501V14.65L9.4 13.1L8 14.5L12 18.5L16 14.5L14.6 13.1L13 14.65V6.57501C14.7167 6.80835 16.146 7.57901 17.288 8.88701C18.4293 10.1957 19 11.7333 19 13.5C20.15 13.6333 21.1043 14.129 21.863 14.987C22.621 15.8457 23 16.85 23 18C23 19.25 22.5627 20.3127 21.688 21.188C20.8127 22.0627 19.75 22.5 18.5 22.5H6.5Z" fill="white"/>
</g>
<path d="M48.0057 5.54545V23H45.5852L36.7131 10.1989H36.5511V23H33.9176V5.54545H36.3551L45.2358 18.3636H45.3977V5.54545H48.0057ZM51.6428 23V9.90909H54.1911V23H51.6428ZM52.9297 7.8892C52.4865 7.8892 52.1058 7.74148 51.7876 7.44602C51.4751 7.14489 51.3189 6.78693 51.3189 6.37216C51.3189 5.9517 51.4751 5.59375 51.7876 5.29829C52.1058 4.99716 52.4865 4.84659 52.9297 4.84659C53.3729 4.84659 53.7507 4.99716 54.0632 5.29829C54.3814 5.59375 54.5405 5.9517 54.5405 6.37216C54.5405 6.78693 54.3814 7.14489 54.0632 7.44602C53.7507 7.74148 53.3729 7.8892 52.9297 7.8892ZM57.6193 23V9.90909H60.0653V12.0398H60.2273C60.5 11.3182 60.946 10.7557 61.5653 10.3523C62.1847 9.94318 62.9261 9.73864 63.7898 9.73864C64.6648 9.73864 65.3977 9.94318 65.9886 10.3523C66.5852 10.7614 67.0256 11.3239 67.3097 12.0398H67.446C67.7585 11.3409 68.2557 10.7841 68.9375 10.3693C69.6193 9.94886 70.4318 9.73864 71.375 9.73864C72.5625 9.73864 73.5312 10.1108 74.2812 10.8551C75.0369 11.5994 75.4148 12.7216 75.4148 14.2216V23H72.8665V14.4602C72.8665 13.5739 72.625 12.9318 72.142 12.5341C71.6591 12.1364 71.0824 11.9375 70.4119 11.9375C69.5824 11.9375 68.9375 12.1932 68.4773 12.7045C68.017 13.2102 67.7869 13.8608 67.7869 14.6562V23H65.2472V14.2983C65.2472 13.5881 65.0256 13.017 64.5824 12.5852C64.1392 12.1534 63.5625 11.9375 62.8523 11.9375C62.3693 11.9375 61.9233 12.0653 61.5142 12.321C61.1108 12.571 60.7841 12.9205 60.5341 13.3693C60.2898 13.8182 60.1676 14.3381 60.1676 14.929V23H57.6193ZM79.0348 23V5.54545H81.5831V12.0312H81.7365C81.8842 11.7585 82.0973 11.4432 82.3757 11.0852C82.6541 10.7273 83.0405 10.4148 83.5348 10.1477C84.0291 9.875 84.6825 9.73864 85.495 9.73864C86.5518 9.73864 87.495 10.0057 88.3246 10.5398C89.1541 11.0739 89.8047 11.8437 90.2763 12.8494C90.7536 13.8551 90.9922 15.0653 90.9922 16.4801C90.9922 17.8949 90.7564 19.108 90.2848 20.1193C89.8132 21.125 89.1655 21.9006 88.3416 22.446C87.5178 22.9858 86.5774 23.2557 85.5206 23.2557C84.7251 23.2557 84.0746 23.1222 83.5689 22.8551C83.0689 22.5881 82.6768 22.2756 82.3928 21.9176C82.1087 21.5597 81.8899 21.2415 81.7365 20.9631H81.5234V23H79.0348ZM81.532 16.4545C81.532 17.375 81.6655 18.1818 81.9325 18.875C82.1996 19.5682 82.5859 20.1108 83.0916 20.5028C83.5973 20.8892 84.2166 21.0824 84.9496 21.0824C85.7109 21.0824 86.3473 20.8807 86.8587 20.4773C87.37 20.0682 87.7564 19.5142 88.0178 18.8153C88.2848 18.1165 88.4183 17.3295 88.4183 16.4545C88.4183 15.5909 88.2876 14.8153 88.0263 14.1278C87.7706 13.4403 87.3842 12.8977 86.8672 12.5C86.3558 12.1023 85.7166 11.9034 84.9496 11.9034C84.2109 11.9034 83.5859 12.0937 83.0746 12.4744C82.5689 12.8551 82.1854 13.3864 81.924 14.0682C81.6626 14.75 81.532 15.5455 81.532 16.4545ZM102.146 17.571V9.90909H104.703V23H102.197V20.733H102.061C101.76 21.4318 101.277 22.0142 100.612 22.4801C99.9531 22.9403 99.1321 23.1705 98.1491 23.1705C97.3082 23.1705 96.5639 22.9858 95.9162 22.6165C95.2741 22.2415 94.7685 21.6875 94.3991 20.9545C94.0355 20.2216 93.8537 19.3153 93.8537 18.2358V9.90909H96.402V17.929C96.402 18.821 96.6491 19.5312 97.1435 20.0597C97.6378 20.5881 98.2798 20.8523 99.0696 20.8523C99.5469 20.8523 100.021 20.733 100.493 20.4943C100.97 20.2557 101.365 19.8949 101.678 19.4119C101.996 18.929 102.152 18.3153 102.146 17.571ZM117.937 13.1051L115.627 13.5142C115.531 13.2187 115.377 12.9375 115.167 12.6705C114.962 12.4034 114.684 12.1847 114.332 12.0142C113.979 11.8437 113.539 11.7585 113.011 11.7585C112.289 11.7585 111.687 11.9205 111.204 12.2443C110.721 12.5625 110.479 12.9744 110.479 13.4801C110.479 13.9176 110.641 14.2699 110.965 14.5369C111.289 14.804 111.812 15.0227 112.533 15.1932L114.613 15.6705C115.817 15.9489 116.715 16.3778 117.306 16.9574C117.897 17.5369 118.192 18.2898 118.192 19.2159C118.192 20 117.965 20.6989 117.511 21.3125C117.062 21.9205 116.434 22.3977 115.627 22.7443C114.826 23.0909 113.897 23.2642 112.84 23.2642C111.374 23.2642 110.178 22.9517 109.252 22.3267C108.326 21.696 107.758 20.8011 107.548 19.642L110.011 19.267C110.164 19.9091 110.479 20.3949 110.957 20.7244C111.434 21.0483 112.056 21.2102 112.823 21.2102C113.658 21.2102 114.326 21.0369 114.826 20.6903C115.326 20.3381 115.576 19.9091 115.576 19.4034C115.576 18.9943 115.423 18.6506 115.116 18.3722C114.815 18.0937 114.352 17.8835 113.727 17.7415L111.511 17.2557C110.289 16.9773 109.386 16.5341 108.8 15.9261C108.221 15.3182 107.931 14.5483 107.931 13.6165C107.931 12.8437 108.147 12.1676 108.579 11.5881C109.011 11.0085 109.607 10.5568 110.369 10.233C111.13 9.90341 112.002 9.73864 112.985 9.73864C114.4 9.73864 115.513 10.0455 116.326 10.6591C117.138 11.267 117.675 12.0824 117.937 13.1051Z" fill="white"/>
</svg>
